PathFileType	4	(X/Y/Z)	C:\Users\avatar\Documents\avatar\mocap1\10002-20130731010438-Unnamed.trc
DataRate	CameraRate	NumFrames	NumMarkers	Units	OrigDataRate	OrigDataStartFrame	OrigNumFrames
400.00	400.00	      32	0	mm	400.00	1	      1313
Frame#	Time	
		

1	0.000	-352.45120	985.40039	288.96054	-333.42441	1157.35706	-68.18295	-22.75943	1157.00342	-34.15644	-511.72168	110.37009	285.39957	-617.13770	87.09865	384.11185	-218.68918	92.69378	282.27206	-29.42702	616.66125	30.04534	-0.37383	1028.21130	575.21216	-10.47246	1251.76563	64.54220	-6.83848	459.44199	-74.92476	-605.53656	640.11206	-155.29057	-671.80804	691.71033	171.65543	799.99994	1593.03601	427.78055	
2	0.002	-351.87659	985.44324	288.71075	-333.28528	1157.13391	-67.94035	-22.35479	1157.14893	-33.88782	-511.71655	110.36464	285.40677	-615.71545	87.82291	384.42947	-218.63698	92.72352	282.26187	-28.85630	617.42407	30.51118	-0.37886	1028.22034	575.20844	-10.49199	1251.61890	64.55891	-5.18271	459.79691	-75.31200	-605.49500	640.09027	-155.16710	-670.12769	691.59332	171.29616	799.89337	1592.81055	427.58847	-1062.77673	119.02962	4.87206	
3	0.005	-352.23206	984.68512	288.65588	-333.08698	1156.88525	-67.73295	-22.23653	1157.45886	-33.42962	-511.74515	110.32416	285.47101	-617.16675	87.09780	384.07642				-28.78496	617.50635	30.54635				-10.44812	1251.17676	64.69090	-5.34507	460.00290	-75.25249	-604.49835	641.14215	-154.45752	-672.56085	691.37640	171.92923	799.87079	1592.70398	427.47363				561.74939	1217.09741	510.49115	
4	0.007	-351.63281	984.60718	288.72614	-333.15796	1157.05481	-67.95197	-21.90496	1157.57849	-33.16566	-511.68420	110.31392	285.41495	-617.16620	87.09406	384.07999	-1062.17200	118.96660	4.78973	-28.41129	618.05316	30.53824				-10.35627	1250.65051	64.68199	-2.21902	460.13950	-76.06998	-603.91632	641.84412	-153.86681	-672.59930	691.28308	171.97545	799.47632	1592.43958	427.01761	
5	0.010	-351.52277	984.59698	288.75778	-332.99567	1156.16724	-67.67434	-21.81641	1157.09351	-32.53043	-511.73477	110.25698	285.47156	-616.56091	87.43793	384.18585				-28.03667	618.35120	30.43179	-1061.83081	118.89426	4.91665	-10.38671	1250.37292	64.80512	2.53591	461.30933	-76.78174	-603.14166	642.53265	-153.05917	-672.49554	691.21100	172.04428	799.18353	1592.30176	426.47552	
6	0.013	-351.34613	984.47308	288.96512	-332.36505	1156.37122	-68.09722	-21.31289	1157.17297	-32.21698	-511.74902	110.25495	285.48685	-616.56934	87.44018	384.17679	-1061.48364	118.86858	4.84217	-27.22219	619.80591	30.57974				-10.52246	1249.75671	65.03786	0.80767	463.29819	-76.88889	-603.17920	642.83649	-152.98581	-672.55316	691.11481	172.09525	799.10883	1592.21521	426.29761	
7	0.015	-350.81604	984.43091	288.96896				-21.07178	1156.54968	-31.48715	-511.69586	110.26387	285.52954	-616.54211	87.46539	384.18631				-26.96101	620.35040	29.77866	-1060.44995	118.71416	4.89937	-10.76720	1249.27039	65.34264	1.73087	463.70187	-77.20260	-602.49402	643.59473	-152.68178	-672.55951	691.01715	172.14853	798.77039	1592.05920	426.00101	
8	0.018	-350.35553	984.37714	288.96832	-332.38385	1156.11987	-67.70284	-21.28205	1156.01843	-30.80443	-511.73071	110.22870	285.52682	-616.54401	87.49110	384.16449				-27.09461	620.51520	29.61396	-1059.62476	118.59513	5.11749	-10.73473	1248.93738	65.38756	0.98522	464.52835	-77.01665	-601.96655	643.51794	-152.46031	-673.03351	690.50427	172.34039	798.43707	1591.80029	425.38974	
9	0.020	-350.04419	984.40717	288.86374	-331.73282	1156.26233	-68.00320	-21.19757	1156.26416	-30.39650	-511.72504	110.18563	285.58963	-616.52698	87.47157	384.16278				-26.43891	621.51752	30.05525	-1058.87891	118.48887	4.94193	-10.70376	1248.64734	65.35023	1.89119	466.20386	-76.73104	-600.88513	645.16364	-151.31598	-672.97766	690.46057	172.37622	798.32263	1591.77502	425.10815	
10	0.023	-349.38998	984.40265	288.77512	-332.31488	1156.15833	-67.66319	-21.00517	1156.28784	-30.17013	-511.72308	110.17274	285.60526	-616.47900	87.48087	384.16458				-25.66516	622.38977	30.37996	-1058.75720	118.49386	5.12028	-10.66394	1248.29602	65.40863	1.55383	468.41891	-77.32343	-600.04706	646.12256	-150.45172	-671.83063	690.07159	172.67696	797.87036	1591.70825	424.61697	
11	0.025	-348.93497	984.28894	288.98453	-332.29388	1156.15955	-67.63907	-20.63066	1156.48682	-29.76496	-511.86960	110.12723	285.53555	-615.69519	87.85474	384.41025				-25.14902	623.17706	29.99507	-1058.01050	118.42432	4.74887	-10.69499	1247.75293	65.30802	3.22571	468.98587	-77.80227				-671.16632	689.48224	172.85127	797.31934	1591.64270	424.00897	
12	0.027	-348.61755	984.23254	288.99957	-332.25955	1156.15808	-67.60548	-20.65421	1156.58350	-29.58836	-511.74707	110.13394	285.59659	-616.51392	87.47404	384.16028				-24.33123	624.87433	29.74233	-1057.28870	118.33086	5.04616	-10.75661	1247.48462	65.36502	1.80926	470.01169	-77.43311				-671.02161	689.42242	172.88835	796.79596	1591.35376	423.40005	
13	0.030	-347.16806	984.84247	289.70663	-331.26468	1156.89587	-66.74504	-20.30159	1156.79736	-29.22066	-511.83081	110.08664	285.66003	-616.50165	87.46932	384.17075				-24.35484	625.25232	29.47966	-1056.36438	118.18434	5.21620	-10.86479	1247.23804	65.45909	6.16259	472.87299	-78.69819				-671.39600	688.85297	172.80260	796.23694	1591.29407	422.82852	
14	0.032	-345.94183	985.44342	290.51239	-330.65646	1157.02490	-67.06237	-20.02936	1156.82837	-29.12221	-511.87128	110.04694	285.55188	-615.64172	87.87759	384.40820				-23.55826	626.23602	29.77438	-1055.65100	118.08920	5.32040	-10.95718	1246.66309	65.52746	6.01232	473.14001	-78.72529				-671.30707	688.80304	172.82561	795.68030	1591.14746	422.27136	
15	0.035	-345.26425	985.38336	290.42148	-331.25623	1156.89429	-66.74546	-19.43679	1156.95386	-28.79897	-511.73755	110.10994	285.60263	-616.49939	87.47112	384.15500	559.27930	1212.78271	510.31140	-23.22561	627.51276	29.42355	-1055.28687	118.02784	5.34425	-10.81898	1246.60449	65.59546	10.93000	474.10071	-80.01122	-218.18842	92.64222	282.16452	-671.08325	688.75012	172.88245	
16	0.038	-346.02036	984.11774	289.94397	-331.83752	1156.71130	-66.37057	-19.27174	1157.11694	-28.55811	-511.85104	110.03846	285.55429	-616.45374	87.49212	384.17178				-22.68215	628.43036	28.84371	-1054.77295	117.97632	5.36212	-10.72851	1246.44983	65.44934	8.56779	477.23584	-79.57094				-670.86212	688.69714	172.93861	
17	0.040	-345.46606	984.01111	290.06140				-18.93995	1157.24402	-28.36001	-512.00958	109.98495	285.48566	-615.69757	87.87837	384.38272				-22.18497	629.55670	28.72864	-1054.56519	117.94648	5.40494	-10.85907	1246.10400	65.63461	10.26745	477.86743	-80.05944				-668.62555	688.27673	173.50508	
18	0.043	-345.29849	984.01184	289.96555				-18.75920	1157.46021	-27.99869	-511.79123	110.01302	285.55466	-616.49677	87.48779	384.15442				-22.28742	630.39203	28.43877	-1053.93323	117.84557	5.18577	-10.84381	1245.68506	65.53318	6.47478	480.95944	-80.05170				-666.51080	688.37061	174.03339	
19	0.045	-345.06229	983.95068	289.97958				-18.62598	1157.49170	-27.94515	-511.79669	109.98977	285.55206	-616.90228	87.20556	383.91138				-21.67783	631.71063	28.33001	-1052.71973	117.69873	5.61540	-10.66681	1245.40881	65.58547	11.37070	482.68182	-80.56478				-666.49792	688.35553	174.03682	
20	0.047	-344.72552	983.61469	290.12863				-18.32407	1157.59363	-27.65719	-511.94650	109.88647	285.48737	-616.50488	87.49020	384.15518				-21.15587	633.30450	28.08463	-1052.40222	117.64782	5.61046	-10.51337	1245.22278	65.61794	12.88400	484.46030	-81.92165				-666.41144	687.47791	174.00558	
21	0.050	-344.51117	983.51007	290.19690				-18.22820	1157.69019	-27.54373	-511.95703	109.84315	285.51529	-615.47034	87.93063	384.24185				-20.70745	634.76770	27.65015	-1051.71851	117.57247	5.57906	-10.50584	1245.14063	65.63546	15.68030	486.10254	-82.56638				-667.94690	687.46088	174.40906	
22	0.052	-344.04620	983.31647	290.30121	-492.61508	1257.62659	172.54903	-17.95749	1157.77795	-27.35198	-512.21722	109.68355	285.34933	-616.33551	87.55807	384.01648				-21.41642	635.03534	26.91173	-1051.65698	117.55666	5.58814	-10.48020	1244.95007	65.58201	13.21848	488.09341	-83.24973				-668.05560	687.32819	174.44508	
23	0.055	-343.73282	983.31781	290.24765				-17.81699	1157.82605	-27.20436	-512.24780	109.63618	285.32510	-615.63782	87.91995	384.38672				-20.67561	636.45532	26.95212	-1051.16309	117.49767	5.63281	-10.61006	1244.49023	65.38277	9.97233	491.22217	-83.72115				-668.08765	687.23901	174.45303	
24	0.058	-343.10452	983.20227	290.31863				-17.31301	1157.83093	-26.99445	-512.26312	109.56417	285.34900	-615.46899	87.96265	384.24323				-19.76603	638.69366	26.81914	-1050.54724	117.45625	5.57084	-10.34357	1244.38110	65.45749	12.95175	492.61243	-84.59554				-668.18805	687.15790	174.49153	
25	0.060	-342.83658	983.16040	290.27832				-17.24050	1157.37622	-26.57853	-512.24493	109.56058	285.33191	-616.24817	87.59116	383.99744				-19.10327	639.96564	26.58453	-1050.38318	117.40719	5.58355	-10.18764	1244.36792	65.49230	12.06651	494.51428	-84.24959				-671.08362	686.62579	174.10915	
26	0.063	-342.55286	983.14172	290.26352				-17.03463	1157.36316	-26.79320	-512.23993	109.55750	285.33228	-615.41528	87.98731	384.22009				-19.52060	640.28436	25.64209	-1049.32642	117.22818	5.89420	-10.08254	1244.11035	65.38812	13.89393	496.69614	-85.77902				-668.43353	685.78290	174.64133	
27	0.065	-342.28821	983.09448	290.19937				-16.56245	1157.40320	-26.65548	-512.21661	109.55112	285.33383	-615.39850	87.99287	384.23444				-18.71263	642.22803	25.74485	-1048.95105	117.11265	5.86778	-10.00043	1243.96362	65.33287	20.65822	498.60397	-86.77374				-668.30353	685.73828	174.65953	
28	0.068	-342.15573	983.10132	290.19455	-2135.22144	-413.71365	-1430.08777	-16.11900	1157.48486	-26.51757	-512.39374	109.63625	285.18970	-615.38293	88.00735	384.23685	-199.02982	69.43714	59.77386	-18.24938	644.13550	25.58764	-1048.53003	117.08340	5.99289	-9.85006	1243.70105	65.17171	17.51627	501.19189	-86.95360				-667.18652	685.03754	174.92763	
29	0.070	-342.00415	983.08826	290.14560	-2126.15918	-405.82001	-1425.80005	-15.83489	1157.54187	-26.34210	-512.37415	109.46202	285.23697	-615.38818	88.01357	384.22934	-199.07442	69.43233	59.77047	-18.52775	645.33820	25.02038	-1048.15515	117.04789	6.02864	-9.64469	1243.70728	65.24435							-667.04736	685.01276	174.91805	
30	0.072	-341.56400	983.03156	290.12039	-2116.08057	-396.92993	-1420.26147	-15.49015	1157.62415	-26.19000	-512.41400	109.39455	285.21756	-615.36816	88.01747	384.23105	-199.03922	69.41101	59.78103	-18.98464	645.55804	24.37309	-1048.11414	117.02699	6.04189	-9.44017	1243.61243	65.14262	17.39988	506.05054	-87.21684				-666.95923	685.00122	174.92099	
31	0.075	-341.50415	983.01416	290.10654				-15.37142	1157.66113	-26.17498	-512.28259	109.43538	285.26678	-615.37140	88.02113	384.23358	-198.97800	69.37731	59.75291	-18.07735	647.74121	23.92968	-1048.09302	117.01897	6.02219	-9.29799	1243.53528	64.95985	17.01690	508.44418	-89.42282				-668.19421	684.89276	175.23523	
32	0.078	-341.32245	982.94440	290.18637				-15.12395	1157.72119	-26.35202	-512.24170	109.42139	285.22095	-615.38434	88.02068	384.22394	-198.91557	69.33099	59.77847	-17.70907	649.08862	23.71304	-1047.88940	116.98111	5.73540	-9.30864	1243.35010	64.85469	19.66973	510.29932	-90.35156				-669.13544	684.34344	175.04129	
